<?xml version="1.0" standalone="no"?>
<!DOCTYPE svg PUBLIC "-//W3C//DTD SVG 20010904//EN"
 "http://www.w3.org/TR/2001/REC-SVG-20010904/DTD/svg10.dtd">
<svg version="1.0" xmlns="http://www.w3.org/2000/svg"
 width="1024.000000pt" height="1024.000000pt" viewBox="0 0 1024.000000 1024.000000"
 preserveAspectRatio="xMidYMid meet">
<metadata>
Created by potrace 1.11, written by Peter Selinger 2001-2013
</metadata>
<g transform="translate(0.000000,1024.000000) scale(0.100000,-0.100000)"
fill="#000000" stroke="none">
<path d="M854 10224 c-111 -18 -261 -74 -358 -131 -105 -63 -252 -204 -322
-309 -62 -93 -124 -235 -151 -346 -17 -69 -18 -291 -21 -4268 -3 -3207 -1
-4215 9 -4280 32 -231 135 -435 301 -596 141 -137 313 -231 501 -271 78 -17
297 -18 4307 -18 4010 0 4229 1 4307 18 194 42 379 144 519 289 152 155 241
330 279 548 13 74 15 606 15 4255 0 3670 -2 4181 -15 4263 -36 224 -141 421
-311 583 -146 140 -330 230 -539 264 -130 21 -8395 21 -8521 -1z m3324 -1508
c52 -22 87 -63 104 -119 17 -57 17 -505 0 -563 -15 -51 -44 -90 -84 -110 -51
-26 -233 -34 -840 -34 l-588 0 0 -62 c0 -35 -16 -594 -35 -1243 -19 -649 -35
-1212 -35 -1252 l0 -72 583 -4 c419 -2 592 -7 619 -16 58 -18 96 -56 112 -111
34 -114 28 -518 -8 -588 -26 -51 -69 -79 -139 -91 -42 -7 -259 -11 -630 -11
l-567 0 0 -85 c0 -102 -67 -2481 -74 -2611 -2 -49 -11 -106 -19 -125 -47 -114
-199 -145 -664 -136 -390 7 -448 27 -489 164 -20 65 -210 6778 -194 6863 25
133 126 193 371 219 46 5 635 8 1309 7 1171 -1 1227 -2 1268 -20z m3118 14
c800 -64 1330 -317 1589 -758 73 -125 118 -275 134 -447 8 -85 -39 -2054 -54
-2269 -13 -188 -65 -378 -146 -536 -213 -413 -677 -684 -1312 -766 -86 -11
-248 -17 -549 -21 l-426 -5 -6 -142 c-4 -77 -18 -564 -31 -1081 -14 -517 -28
-968 -31 -1002 -18 -195 -114 -228 -644 -220 -246 3 -317 7 -365 21 -112 32
-146 66 -165 166 -9 47 -187 6223 -192 6670 -2 149 0 181 15 215 47 105 141
151 358 174 121 12 1669 13 1825 1z"/>
<path d="M6646 7988 c-2 -7 -23 -706 -45 -1553 -23 -847 -44 -1600 -48 -1672
l-6 -133 219 0 c305 0 472 23 582 79 108 55 180 161 207 304 21 108 20 215
-15 1472 -31 1143 -36 1214 -81 1311 -40 84 -116 140 -229 169 -116 30 -577
47 -584 23z"/>
</g>
</svg>
