<?xml version="1.0" standalone="no"?>
<!DOCTYPE svg PUBLIC "-//W3C//DTD SVG 20010904//EN"
 "http://www.w3.org/TR/2001/REC-SVG-20010904/DTD/svg10.dtd">
<svg version="1.0" xmlns="http://www.w3.org/2000/svg"
 width="512.000000pt" height="512.000000pt" viewBox="0 0 512.000000 512.000000"
 preserveAspectRatio="xMidYMid meet">
<metadata>
Created by potrace 1.11, written by Peter Selinger 2001-2013
</metadata>
<g transform="translate(0.000000,512.000000) scale(0.100000,-0.100000)"
fill="#000000" stroke="none">
<path d="M2453 3331 c-18 -11 -40 -35 -50 -53 -17 -31 -18 -78 -18 -728 0
-627 2 -699 17 -732 45 -99 182 -102 235 -6 17 31 18 81 21 716 2 440 -1 696
-8 720 -23 86 -125 128 -197 83z"/>
<path d="M3370 3327 c-117 -35 -196 -82 -280 -167 -167 -167 -230 -363 -217
-670 6 -133 22 -222 54 -310 79 -212 245 -364 460 -421 105 -28 298 -30 398
-5 152 39 319 144 351 223 17 39 18 106 3 136 -40 78 -113 76 -229 -8 -128
-92 -262 -122 -416 -94 -201 37 -312 179 -344 438 -26 206 20 396 123 508 88
96 173 128 332 127 129 -1 186 -19 293 -91 116 -78 154 -89 198 -58 52 36 70
143 35 202 -42 68 -197 158 -334 194 -108 28 -325 26 -427 -4z"/>
<path d="M1033 3325 c-39 -17 -63 -61 -63 -115 0 -35 7 -48 44 -88 l45 -47
215 -3 215 -3 3 -602 c3 -588 3 -603 24 -642 29 -56 79 -88 127 -82 48 7 82
29 104 70 17 29 18 80 21 645 l3 612 177 1 c268 0 300 7 328 74 32 78 10 155
-53 181 -48 21 -1143 20 -1190 -1z"/>
<path d="M3062 543 c153 -2 403 -2 555 0 153 1 28 2 -277 2 -305 0 -430 -1
-278 -2z"/>
</g>
</svg>
